<svg xmlns="http://www.w3.org/2000/svg" viewBox="0 0 608.02 217.48"><defs><style>.cls-1{fill:#1c3a8b;}.cls-2{fill:#e4b72f;}</style></defs><title>Recurso 1</title><g id="Capa_2" data-name="Capa 2"><g id="Capa_1-2" data-name="Capa 1"><path class="cls-1" d="M55.16,108.32V66.49q14.37,0,14.37-11,0-10-11-10T47.44,59.25V163.48H0V64.15q0-15.42,3.1-25.3a51,51,0,0,1,10.57-18.4,59.33,59.33,0,0,1,21-15A64.67,64.67,0,0,1,60.76,0q24.32,0,40.85,16.36t16.53,40.55q0,23.49-14.84,38.09-13.56,13.44-40.9,13.44Z"/><path class="cls-1" d="M121.5,163.48H103.09V137a9.64,9.64,0,0,0-.64-4.23,2.4,2.4,0,0,0-2.31-1.19c-2.07,0-3.1,1.83-3.1,5.47v26.43H78.63V137a9.26,9.26,0,0,0-.67-4.23,2.44,2.44,0,0,0-2.33-1.19c-2,0-3.06,1.83-3.06,5.47v26.43H54.17V133.26a19.5,19.5,0,0,1,5.56-14,18,18,0,0,1,13.48-5.79q8.17,0,14.67,6.89,7.25-6.89,14.47-6.89a18.23,18.23,0,0,1,14.77,6.7q4.38,5.2,4.38,15.2Z"/><path class="cls-1" d="M156.52,140.37V123q6,0,6-4.58,0-4.19-4.58-4.18t-4.62,5.74v43.4H133.55V122a35.88,35.88,0,0,1,1.29-10.53,21.23,21.23,0,0,1,4.41-7.67A24.63,24.63,0,0,1,148,97.55a26.83,26.83,0,0,1,10.85-2.29,23.22,23.22,0,0,1,17,6.81A22.81,22.81,0,0,1,182.75,119q0,9.78-6.18,15.86-5.64,5.6-17,5.59Z"/><path class="cls-1" d="M189.56,113.85h18.2v27.39q0,4.14,3.46,4.14t3.4-4.14V113.85h18.2V140.9a22,22,0,0,1-6.28,15.94,20.54,20.54,0,0,1-15.37,6.49q-10.36,0-16.69-7.54-4.92-5.88-4.92-16.35Z"/><path class="cls-1" d="M260.56,95.94v39.75q0,9.69,6.95,9.69a6.93,6.93,0,0,0,5-2,6.59,6.59,0,0,0,2.07-4.89,6.91,6.91,0,0,0-1.95-5,6.33,6.33,0,0,0-4.77-2,8.52,8.52,0,0,0-4.57,1.75v-20c2.14-.2,3.76-.3,4.87-.3a23.9,23.9,0,0,1,17.59,7.4,24.41,24.41,0,0,1,7.32,17.81A24.15,24.15,0,0,1,285.67,156,26,26,0,0,1,256.74,161a23.89,23.89,0,0,1-8.54-6.42q-5.85-7-5.84-18.15V95.94Z"/><path class="cls-1" d="M319.29,96.91v66.42h-18.2V96.91Z"/><path class="cls-1" d="M348.14,114.82v48.51H330V114.82Zm-9.05-21.65a8.88,8.88,0,0,1,6.4,2.6,8.61,8.61,0,0,1,.15,12.38,10,10,0,0,1-13.09,0,8.6,8.6,0,0,1,.14-12.38A8.9,8.9,0,0,1,339.09,93.17Z"/><path class="cls-1" d="M388.63,140l18.05-.68a25.68,25.68,0,0,1-7.83,17.27,23.91,23.91,0,0,1-17.18,6.76,24.48,24.48,0,0,1-18.08-7.44,25,25,0,0,1-7.37-18.25,23.72,23.72,0,0,1,7.45-17.57,25.42,25.42,0,0,1,33.91-1.55,24.35,24.35,0,0,1,8.66,14.64l-18.44.69a7.3,7.3,0,0,0-6-3.12,6.8,6.8,0,0,0-5.11,2.05,7.07,7.07,0,0,0-2,5.15,7.27,7.27,0,0,0,2.12,5.31,7.15,7.15,0,0,0,5.28,2.14Q386.68,145.38,388.63,140Z"/><path class="cls-1" d="M432.81,114.82v48.51h-18.2V114.82Zm-9.05-21.65a8.88,8.88,0,0,1,6.4,2.6,8.61,8.61,0,0,1,.15,12.38,10,10,0,0,1-13.09,0,8.19,8.19,0,0,1-2.56-6.23,8.28,8.28,0,0,1,2.7-6.15A8.9,8.9,0,0,1,423.76,93.17Z"/><path class="cls-1" d="M473.39,95.94h18.2v40.44q0,11.13-5.84,18.15a23.8,23.8,0,0,1-8.54,6.42A26,26,0,0,1,448.29,156a24.06,24.06,0,0,1-7.45-17.9,24.42,24.42,0,0,1,7.4-17.76,23.78,23.78,0,0,1,17.51-7.5c1.08,0,2.7.1,4.87.3v20a7.29,7.29,0,0,0-4.48-1.75,6.53,6.53,0,0,0-4.84,2.07,6.91,6.91,0,0,0-2,5,6.49,6.49,0,0,0,2.1,4.84,6.93,6.93,0,0,0,5,2q7,0,7-9.69Z"/><path class="cls-1" d="M528.14,144.11v18.83a24.1,24.1,0,0,1-4.09.39,25,25,0,0,1-18.25-7.2,25.7,25.7,0,0,1,.07-36,24.47,24.47,0,0,1,17.94-7.35q11.78,0,18.56,6.89t6.79,18.81v23.79H531V139.83a9.42,9.42,0,0,0-1.87-6.13,6.2,6.2,0,0,0-5-2.29,7.17,7.17,0,0,0-7.06,7.06,6.84,6.84,0,0,0,1.9,5,6.44,6.44,0,0,0,4.82,1.95A8.23,8.23,0,0,0,528.14,144.11Z"/><path class="cls-1" d="M589.64,95.94h18.2v40.44q0,11.13-5.84,18.15a23.89,23.89,0,0,1-8.54,6.42A26,26,0,0,1,564.53,156a24.09,24.09,0,0,1-7.44-17.9,24.38,24.38,0,0,1,7.4-17.76,23.76,23.76,0,0,1,17.51-7.5c1.07,0,2.7.1,4.87.3v20a7.31,7.31,0,0,0-4.48-1.75,6.53,6.53,0,0,0-4.84,2.07,6.87,6.87,0,0,0-2,5,6.51,6.51,0,0,0,2.09,4.84,7,7,0,0,0,5,2q7,0,7-9.69Z"/><path class="cls-2" d="M8.13,189.37v19h-8V181.69H10.54q6.81,0,10.66,3.1a12.19,12.19,0,0,1,4.58,10,13.26,13.26,0,0,1-3.91,9.9,13.79,13.79,0,0,1-10.08,3.84c-.48,0-1.27,0-2.37-.08v-7.85h1.27q7,0,7-5.81,0-5.46-6.83-5.46Z"/><path class="cls-2" d="M36.3,188.9v19.51H29V188.9Zm-3.64-8.71a3.56,3.56,0,0,1,2.57,1,3.36,3.36,0,0,1,1.09,2.48,3.31,3.31,0,0,1-1,2.5,4,4,0,0,1-5.27,0,3.31,3.31,0,0,1-1-2.5,3.36,3.36,0,0,1,1.09-2.48A3.58,3.58,0,0,1,32.66,180.19Z"/><path class="cls-2" d="M52.84,189.17v7.71a3,3,0,0,0-2.13.58,3.81,3.81,0,0,0-.73,2.28q-.51,5.65-4.39,8a11.54,11.54,0,0,1-5.83,1.21h-1v-7.75h.34a3.52,3.52,0,0,0,2.51-.74,3.87,3.87,0,0,0,.87-2.57,18.32,18.32,0,0,1,.56-4.21,6.17,6.17,0,0,1,1.63-2.41,8.25,8.25,0,0,1,6-2.09Z"/><path class="cls-2" d="M74.41,199.84H63.31a5.2,5.2,0,0,1,.1-3.47h3.72a2.31,2.31,0,0,0-2.45-2.17,2.65,2.65,0,0,0-2.23,1.17,4.83,4.83,0,0,0-.86,3,5.14,5.14,0,0,0,.83,3.07,2.54,2.54,0,0,0,2.18,1.18,2.94,2.94,0,0,0,2.12-1.1l4.17,5a10.24,10.24,0,0,1-6.48,2.29,10,10,0,0,1-7.31-2.91,10.31,10.31,0,0,1,0-14.47,10,10,0,0,1,7.33-2.95,9.85,9.85,0,0,1,10,10C74.49,198.76,74.46,199.21,74.41,199.84Z"/><path class="cls-2" d="M94.85,208.41H87.52v-11c0-1.12-.46-1.68-1.39-1.68s-1.37.56-1.37,1.68v11H77.44V197.53A8.86,8.86,0,0,1,80,191.1a8.78,8.78,0,0,1,12.9.42,10,10,0,0,1,2,6.6Zm-6.8-25.88h3a5.41,5.41,0,0,1-.92,3.25,2.81,2.81,0,0,1-2.35,1.28,3,3,0,0,1-1.57-.47l-.88-.55a.91.91,0,0,0-.41-.14c-.4,0-.67.31-.78,1H81.24a5.5,5.5,0,0,1,.85-3.29,2.8,2.8,0,0,1,2.4-1.17,2.85,2.85,0,0,1,1.51.45l.78.47a1,1,0,0,0,.49.15C87.71,183.56,88,183.23,88.05,182.53Z"/><path class="cls-2" d="M108.37,188.48a9.69,9.69,0,0,1,7.12,3,10.14,10.14,0,0,1,0,14.36,10.35,10.35,0,0,1-14.52,0,9.76,9.76,0,0,1-3-7.2,9.66,9.66,0,0,1,3-7.21A10.28,10.28,0,0,1,108.37,188.48Zm-.19,7.23a2.66,2.66,0,0,0-2,.85,3,3,0,0,0,0,4.16,2.74,2.74,0,0,0,4,0,3,3,0,0,0,0-4.16A2.68,2.68,0,0,0,108.18,195.71Z"/><path class="cls-2" d="M143.39,193.44H151a10,10,0,0,1,2.44,6.4,8.63,8.63,0,0,1-2.86,6.58,10,10,0,0,1-7.06,2.66,12.09,12.09,0,0,1-9.24-4.13,14.35,14.35,0,0,1-3.8-10.06,13.6,13.6,0,0,1,3.87-9.91A13,13,0,0,1,144,181a13.78,13.78,0,0,1,4.38.8v7.95a8.1,8.1,0,0,0-3.42-.88,6.24,6.24,0,0,0-4.57,1.74,6.82,6.82,0,0,0-.13,9,6,6,0,0,0,4.44,1.67c1.19,0,1.78-.35,1.78-1q0-.78-1.17-.78h-1.9Z"/><path class="cls-2" d="M166.8,188.7v7.83a2.84,2.84,0,0,0-1.39-.43c-1.33,0-2,1-2,3.05v9.26H156.1V197.74a9.59,9.59,0,0,1,2.31-6.74,7.93,7.93,0,0,1,6.16-2.52A15.47,15.47,0,0,1,166.8,188.7Z"/><path class="cls-2" d="M179.8,201.09v7.58a10.44,10.44,0,0,1-9-2.74,10.21,10.21,0,0,1,7.24-17.43,10,10,0,0,1,7.47,2.77,10.32,10.32,0,0,1,2.73,7.57v9.57h-7.32v-9a3.81,3.81,0,0,0-.76-2.47,2.49,2.49,0,0,0-2-.92,2.89,2.89,0,0,0-2.08,4.84,2.61,2.61,0,0,0,1.94.78A3.32,3.32,0,0,0,179.8,201.09Zm-.12-18.69h4.64l-4.64,4.54h-4.13Z"/><path class="cls-2" d="M203.11,193.22v7.68h-3.26v7.51h-7.33V191.83a10.82,10.82,0,0,1,1-4.77,9.94,9.94,0,0,1,3.69-4.12,9.34,9.34,0,0,1,5.16-1.6l.78,0V189l-.37,0a2.62,2.62,0,0,0-2.14.92,4.08,4.08,0,0,0-.75,2.63v.66Z"/><path class="cls-2" d="M213.65,188.9v19.51h-7.33V188.9ZM210,180.19a3.58,3.58,0,0,1,2.58,1,3.36,3.36,0,0,1,1.09,2.48,3.31,3.31,0,0,1-1,2.5,4,4,0,0,1-5.27,0,3.31,3.31,0,0,1-1-2.5,3.36,3.36,0,0,1,1.09-2.48A3.56,3.56,0,0,1,210,180.19Z"/><path class="cls-2" d="M229.93,199.43l7.26-.28A10.28,10.28,0,0,1,234,206.1a9.58,9.58,0,0,1-6.91,2.72,9.86,9.86,0,0,1-7.27-3,10,10,0,0,1-3-7.34,9.53,9.53,0,0,1,3-7.07A10.15,10.15,0,0,1,237,196.69l-7.42.27a3,3,0,0,0-2.43-1.25,2.73,2.73,0,0,0-2,.82,2.84,2.84,0,0,0-.81,2.08,2.93,2.93,0,0,0,.86,2.13,2.86,2.86,0,0,0,2.12.86A2.75,2.75,0,0,0,229.93,199.43Z"/><path class="cls-2" d="M249.64,188.48a10.16,10.16,0,0,1,10.08,10.14,9.79,9.79,0,0,1-3,7.21,10.33,10.33,0,0,1-14.51,0,9.77,9.77,0,0,1-3-7.2,9.66,9.66,0,0,1,3-7.21A10.25,10.25,0,0,1,249.64,188.48Zm-.19,7.23a2.68,2.68,0,0,0-2,.85,3,3,0,0,0,0,4.16,2.74,2.74,0,0,0,4,0,3,3,0,0,0,0-4.16A2.67,2.67,0,0,0,249.45,195.71Z"/><path class="cls-2" d="M292,199.84H280.89a5.4,5.4,0,0,1-.26-1.55,5.57,5.57,0,0,1,.35-1.92h3.72a2.3,2.3,0,0,0-2.44-2.17,2.67,2.67,0,0,0-2.24,1.17,4.9,4.9,0,0,0-.86,3,5.21,5.21,0,0,0,.83,3.07,2.57,2.57,0,0,0,2.19,1.18,2.92,2.92,0,0,0,2.11-1.1l4.17,5A10.2,10.2,0,0,1,282,208.8a10,10,0,0,1-7.3-2.91,10.29,10.29,0,0,1,0-14.47,10,10,0,0,1,7.33-2.95,9.84,9.84,0,0,1,10,10C292.06,198.76,292,199.21,292,199.84Z"/><path class="cls-2" d="M313.54,181.69v26.72h-8V181.69Z"/><path class="cls-2" d="M345.11,208.41h-7.32V197.88a3.86,3.86,0,0,0-.25-1.68,1,1,0,0,0-.92-.47c-.83,0-1.24.72-1.24,2.17v10.51h-7.32V197.88a3.82,3.82,0,0,0-.26-1.68,1,1,0,0,0-.93-.47c-.81,0-1.22.72-1.22,2.17v10.51h-7.32v-12a7.8,7.8,0,0,1,2.21-5.59,7.2,7.2,0,0,1,5.37-2.3,7.87,7.87,0,0,1,5.83,2.74,8.5,8.5,0,0,1,5.76-2.74,7.25,7.25,0,0,1,5.87,2.67,9.19,9.19,0,0,1,1.74,6.05Z"/><path class="cls-2" d="M356.29,215.64H349V199.35a11,11,0,0,1,2.35-7.3,9.53,9.53,0,0,1,3.43-2.59,10.45,10.45,0,0,1,11.64,2,9.68,9.68,0,0,1,3,7.2,9.87,9.87,0,0,1-3,7.17,9.57,9.57,0,0,1-7.05,3c-.44,0-1.09,0-2-.13v-8.07a2.9,2.9,0,0,0,1.8.73,2.59,2.59,0,0,0,1.95-.85,2.76,2.76,0,0,0,.81-2,2.64,2.64,0,0,0-.84-2,2.79,2.79,0,0,0-2-.81q-2.82,0-2.82,3.89Z"/><path class="cls-2" d="M383.3,188.7v7.83a2.84,2.84,0,0,0-1.39-.43c-1.33,0-2,1-2,3.05v9.26h-7.33V197.74A9.59,9.59,0,0,1,374.9,191a8,8,0,0,1,6.17-2.52A15.6,15.6,0,0,1,383.3,188.7Z"/><path class="cls-2" d="M404.64,199.84h-11.1a5,5,0,0,1,.1-3.47h3.72a2.31,2.31,0,0,0-2.45-2.17,2.65,2.65,0,0,0-2.23,1.17,4.83,4.83,0,0,0-.86,3,5.14,5.14,0,0,0,.83,3.07,2.54,2.54,0,0,0,2.18,1.18,2.94,2.94,0,0,0,2.12-1.1l4.16,5a10.2,10.2,0,0,1-6.47,2.29,10,10,0,0,1-7.31-2.91,10.31,10.31,0,0,1,0-14.47,10,10,0,0,1,7.33-2.95,9.85,9.85,0,0,1,10,10C404.72,198.76,404.69,199.21,404.64,199.84Z"/><path class="cls-2" d="M419.91,189.17v7.71a3,3,0,0,0-2.13.58,3.81,3.81,0,0,0-.73,2.28q-.51,5.65-4.39,8a11.54,11.54,0,0,1-5.83,1.21h-1v-7.75h.34a3.52,3.52,0,0,0,2.51-.74,3.87,3.87,0,0,0,.87-2.57,18.32,18.32,0,0,1,.56-4.21,6.17,6.17,0,0,1,1.63-2.41,8.24,8.24,0,0,1,6-2.09Z"/><path class="cls-2" d="M429.62,188.9v19.51H422.3V188.9ZM426,180.19a3.57,3.57,0,0,1,2.57,1,3.36,3.36,0,0,1,1.09,2.48,3.31,3.31,0,0,1-1,2.5,4,4,0,0,1-5.27,0,3.31,3.31,0,0,1-1-2.5,3.36,3.36,0,0,1,1.09-2.48A3.58,3.58,0,0,1,426,180.19Z"/><path class="cls-2" d="M443.18,188.48a9.69,9.69,0,0,1,7.12,3,10.14,10.14,0,0,1,0,14.36,10.35,10.35,0,0,1-14.52,0,9.76,9.76,0,0,1-3-7.2,9.66,9.66,0,0,1,3-7.21A10.28,10.28,0,0,1,443.18,188.48Zm.88-6.08h4.64l-4.64,4.54h-4.13ZM443,195.71a2.66,2.66,0,0,0-2,.85,3,3,0,0,0,0,4.16,2.74,2.74,0,0,0,4,0,3,3,0,0,0,0-4.16A2.68,2.68,0,0,0,443,195.71Z"/><path class="cls-2" d="M473.72,208.41H466.4v-11c0-1.12-.47-1.68-1.39-1.68s-1.37.56-1.37,1.68v11h-7.32V197.53a8.9,8.9,0,0,1,2.52-6.43,8.78,8.78,0,0,1,12.9.42,10,10,0,0,1,2,6.6Z"/><path class="cls-2" d="M496.5,189.37v19h-7.94V181.69h10.35q6.81,0,10.67,3.1a12.22,12.22,0,0,1,4.58,10,13.26,13.26,0,0,1-3.91,9.9,13.81,13.81,0,0,1-10.09,3.84c-.48,0-1.27,0-2.36-.08v-7.85h1.27q6.94,0,6.95-5.81,0-5.46-6.83-5.46Z"/><path class="cls-2" d="M524.67,188.9v19.51h-7.32V188.9ZM521,180.19a3.6,3.6,0,0,1,2.58,1,3.35,3.35,0,0,1,1.08,2.48,3.27,3.27,0,0,1-1,2.5,4,4,0,0,1-5.26,0,3.27,3.27,0,0,1-1-2.5,3.32,3.32,0,0,1,1.09-2.48A3.56,3.56,0,0,1,521,180.19Z"/><path class="cls-2" d="M539.39,200.37v6.71a8.74,8.74,0,0,1-3,.59,7.86,7.86,0,0,1-6-2.68,9.36,9.36,0,0,1-2.46-6.56,9.5,9.5,0,0,1,3-7.07,10,10,0,0,1,7.26-2.88,10.79,10.79,0,0,1,4.38.92,8.24,8.24,0,0,1,3.29,2.47q2,2.56,2,7.44v6.42a12.14,12.14,0,0,1-3,8.49,10,10,0,0,1-7.72,3.26,12.47,12.47,0,0,1-3.66-.73V210.1a6,6,0,0,0,2.9.78,3.75,3.75,0,0,0,3-1.3,5.7,5.7,0,0,0,1.08-3.73v-7.34c0-2-.83-3.08-2.49-3.08a2.49,2.49,0,0,0-1.85.82,2.58,2.58,0,0,0-.79,1.87,2.53,2.53,0,0,0,.75,1.86,2.6,2.6,0,0,0,1.87.74A3.11,3.11,0,0,0,539.39,200.37Z"/><path class="cls-2" d="M559.42,188.9v19.51H552.1V188.9Zm-3.64-8.71a3.56,3.56,0,0,1,2.57,1,3.45,3.45,0,0,1,.06,5,4,4,0,0,1-5.27,0,3.3,3.3,0,0,1-1-2.5,3.35,3.35,0,0,1,1.08-2.48A3.58,3.58,0,0,1,555.78,180.19Z"/><path class="cls-2" d="M570.24,181.69v7.48h3.29v7.73h-3.29a5.13,5.13,0,0,0,.74,3.21,3.35,3.35,0,0,0,2.69.88v7.7l-.84,0a10,10,0,0,1-4.69-1.16,9.5,9.5,0,0,1-3.54-3.13,11.92,11.92,0,0,1-1.68-6.7v-16Z"/><path class="cls-2" d="M588,201.09v7.58a10.46,10.46,0,0,1-9-2.74,10.21,10.21,0,0,1,7.25-17.43,10,10,0,0,1,7.46,2.77,10.32,10.32,0,0,1,2.73,7.57v9.57h-7.32v-9a3.81,3.81,0,0,0-.75-2.47,2.5,2.5,0,0,0-2-.92,2.71,2.71,0,0,0-2,.84,2.88,2.88,0,0,0-.08,4,2.59,2.59,0,0,0,1.94.78A3.32,3.32,0,0,0,588,201.09Z"/><path class="cls-2" d="M608,181.69v26.72H600.7V181.69Z"/></g></g></svg>